G04 #@! TF.GenerationSoftware,KiCad,Pcbnew,(5.1.5-0-10_14)*
G04 #@! TF.CreationDate,2020-01-26T21:02:15+01:00*
G04 #@! TF.ProjectId,Cherry MX Breakout Board (Kailh Socket),43686572-7279-4204-9d58-20427265616b,v1*
G04 #@! TF.SameCoordinates,Original*
G04 #@! TF.FileFunction,Copper,L2,Bot*
G04 #@! TF.FilePolarity,Positive*
%FSLAX46Y46*%
G04 Gerber Fmt 4.6, Leading zero omitted, Abs format (unit mm)*
G04 Created by KiCad (PCBNEW (5.1.5-0-10_14)) date 2020-01-26 21:02:15*
%MOMM*%
%LPD*%
G04 APERTURE LIST*
%ADD10R,1.700000X1.700000*%
%ADD11O,1.700000X1.700000*%
%ADD12C,0.100000*%
%ADD13R,0.900000X1.800000*%
%ADD14R,2.500000X2.550000*%
%ADD15C,0.250000*%
G04 APERTURE END LIST*
D10*
X159092000Y-117946000D03*
D11*
X156552000Y-117946000D03*
X154012000Y-117946000D03*
X151472000Y-117946000D03*
X148932000Y-117946000D03*
X146392000Y-117946000D03*
G04 #@! TA.AperFunction,SMDPad,CuDef*
D12*
G36*
X154947691Y-121046053D02*
G01*
X154968926Y-121049203D01*
X154989750Y-121054419D01*
X155009962Y-121061651D01*
X155029368Y-121070830D01*
X155047781Y-121081866D01*
X155065024Y-121094654D01*
X155080930Y-121109070D01*
X155095346Y-121124976D01*
X155108134Y-121142219D01*
X155119170Y-121160632D01*
X155128349Y-121180038D01*
X155135581Y-121200250D01*
X155140797Y-121221074D01*
X155143947Y-121242309D01*
X155145000Y-121263750D01*
X155145000Y-121776250D01*
X155143947Y-121797691D01*
X155140797Y-121818926D01*
X155135581Y-121839750D01*
X155128349Y-121859962D01*
X155119170Y-121879368D01*
X155108134Y-121897781D01*
X155095346Y-121915024D01*
X155080930Y-121930930D01*
X155065024Y-121945346D01*
X155047781Y-121958134D01*
X155029368Y-121969170D01*
X155009962Y-121978349D01*
X154989750Y-121985581D01*
X154968926Y-121990797D01*
X154947691Y-121993947D01*
X154926250Y-121995000D01*
X154488750Y-121995000D01*
X154467309Y-121993947D01*
X154446074Y-121990797D01*
X154425250Y-121985581D01*
X154405038Y-121978349D01*
X154385632Y-121969170D01*
X154367219Y-121958134D01*
X154349976Y-121945346D01*
X154334070Y-121930930D01*
X154319654Y-121915024D01*
X154306866Y-121897781D01*
X154295830Y-121879368D01*
X154286651Y-121859962D01*
X154279419Y-121839750D01*
X154274203Y-121818926D01*
X154271053Y-121797691D01*
X154270000Y-121776250D01*
X154270000Y-121263750D01*
X154271053Y-121242309D01*
X154274203Y-121221074D01*
X154279419Y-121200250D01*
X154286651Y-121180038D01*
X154295830Y-121160632D01*
X154306866Y-121142219D01*
X154319654Y-121124976D01*
X154334070Y-121109070D01*
X154349976Y-121094654D01*
X154367219Y-121081866D01*
X154385632Y-121070830D01*
X154405038Y-121061651D01*
X154425250Y-121054419D01*
X154446074Y-121049203D01*
X154467309Y-121046053D01*
X154488750Y-121045000D01*
X154926250Y-121045000D01*
X154947691Y-121046053D01*
G37*
G04 #@! TD.AperFunction*
G04 #@! TA.AperFunction,SMDPad,CuDef*
G36*
X153372691Y-121046053D02*
G01*
X153393926Y-121049203D01*
X153414750Y-121054419D01*
X153434962Y-121061651D01*
X153454368Y-121070830D01*
X153472781Y-121081866D01*
X153490024Y-121094654D01*
X153505930Y-121109070D01*
X153520346Y-121124976D01*
X153533134Y-121142219D01*
X153544170Y-121160632D01*
X153553349Y-121180038D01*
X153560581Y-121200250D01*
X153565797Y-121221074D01*
X153568947Y-121242309D01*
X153570000Y-121263750D01*
X153570000Y-121776250D01*
X153568947Y-121797691D01*
X153565797Y-121818926D01*
X153560581Y-121839750D01*
X153553349Y-121859962D01*
X153544170Y-121879368D01*
X153533134Y-121897781D01*
X153520346Y-121915024D01*
X153505930Y-121930930D01*
X153490024Y-121945346D01*
X153472781Y-121958134D01*
X153454368Y-121969170D01*
X153434962Y-121978349D01*
X153414750Y-121985581D01*
X153393926Y-121990797D01*
X153372691Y-121993947D01*
X153351250Y-121995000D01*
X152913750Y-121995000D01*
X152892309Y-121993947D01*
X152871074Y-121990797D01*
X152850250Y-121985581D01*
X152830038Y-121978349D01*
X152810632Y-121969170D01*
X152792219Y-121958134D01*
X152774976Y-121945346D01*
X152759070Y-121930930D01*
X152744654Y-121915024D01*
X152731866Y-121897781D01*
X152720830Y-121879368D01*
X152711651Y-121859962D01*
X152704419Y-121839750D01*
X152699203Y-121818926D01*
X152696053Y-121797691D01*
X152695000Y-121776250D01*
X152695000Y-121263750D01*
X152696053Y-121242309D01*
X152699203Y-121221074D01*
X152704419Y-121200250D01*
X152711651Y-121180038D01*
X152720830Y-121160632D01*
X152731866Y-121142219D01*
X152744654Y-121124976D01*
X152759070Y-121109070D01*
X152774976Y-121094654D01*
X152792219Y-121081866D01*
X152810632Y-121070830D01*
X152830038Y-121061651D01*
X152850250Y-121054419D01*
X152871074Y-121049203D01*
X152892309Y-121046053D01*
X152913750Y-121045000D01*
X153351250Y-121045000D01*
X153372691Y-121046053D01*
G37*
G04 #@! TD.AperFunction*
D13*
X157716000Y-102810000D03*
X159216000Y-102810000D03*
X159216000Y-108010000D03*
X157716000Y-108010000D03*
D14*
X148336000Y-99395000D03*
X150876000Y-112820000D03*
D15*
X159216000Y-101660000D02*
X158956000Y-101400000D01*
X159216000Y-102810000D02*
X159216000Y-101660000D01*
X157190998Y-101400000D02*
X156059990Y-102531008D01*
X158956000Y-101400000D02*
X157190998Y-101400000D01*
X156059990Y-102531008D02*
X156059990Y-113330010D01*
X156059990Y-113330010D02*
X151440000Y-117950000D01*
X152695000Y-121520000D02*
X151450000Y-120275000D01*
X153132500Y-121520000D02*
X152695000Y-121520000D01*
X151450000Y-120275000D02*
X151450000Y-118000000D01*
X156679000Y-117946000D02*
X156552000Y-117946000D01*
X157716000Y-108010000D02*
X157716000Y-116704000D01*
X157716000Y-116704000D02*
X156510000Y-117910000D01*
X155145000Y-121520000D02*
X156530000Y-120135000D01*
X154707500Y-121520000D02*
X155145000Y-121520000D01*
X156530000Y-120135000D02*
X156530000Y-118030000D01*
X148932000Y-117946000D02*
X148932000Y-114838000D01*
X148932000Y-114838000D02*
X150720000Y-113050000D01*
X150720000Y-113050000D02*
X150720000Y-112980000D01*
X146392000Y-116743919D02*
X145250000Y-115601919D01*
X146392000Y-117946000D02*
X146392000Y-116743919D01*
X145250000Y-115601919D02*
X145250000Y-100220000D01*
X145250000Y-100220000D02*
X146040000Y-99430000D01*
X146040000Y-99430000D02*
X148480000Y-99430000D01*
X159098001Y-117939999D02*
X159092000Y-117946000D01*
X158896000Y-117623000D02*
X159092000Y-117819000D01*
X158796000Y-117606000D02*
X159050000Y-117860000D01*
X159216000Y-108010000D02*
X159216000Y-117764000D01*
X159216000Y-117764000D02*
X159050000Y-117930000D01*
X157016000Y-102810000D02*
X156510000Y-103316000D01*
X157716000Y-102810000D02*
X157016000Y-102810000D01*
X156510000Y-103316000D02*
X156510000Y-115400000D01*
X156510000Y-115400000D02*
X154030000Y-117880000D01*
M02*
