G04 #@! TF.GenerationSoftware,KiCad,Pcbnew,(5.1.5-0-10_14)*
G04 #@! TF.CreationDate,2020-01-23T15:24:22+01:00*
G04 #@! TF.ProjectId,Cherry MX Breakout Board (Kailh Socket),43686572-7279-4204-9d58-20427265616b,v1*
G04 #@! TF.SameCoordinates,Original*
G04 #@! TF.FileFunction,Legend,Top*
G04 #@! TF.FilePolarity,Positive*
%FSLAX46Y46*%
G04 Gerber Fmt 4.6, Leading zero omitted, Abs format (unit mm)*
G04 Created by KiCad (PCBNEW (5.1.5-0-10_14)) date 2020-01-23 15:24:22*
%MOMM*%
%LPD*%
G04 APERTURE LIST*
%ADD10C,0.130000*%
%ADD11C,0.100000*%
%ADD12C,0.120000*%
G04 APERTURE END LIST*
D10*
X144815714Y-112658833D02*
X144853809Y-112692166D01*
X144891904Y-112792166D01*
X144891904Y-112858833D01*
X144853809Y-112958833D01*
X144777619Y-113025500D01*
X144701428Y-113058833D01*
X144549047Y-113092166D01*
X144434761Y-113092166D01*
X144282380Y-113058833D01*
X144206190Y-113025500D01*
X144130000Y-112958833D01*
X144091904Y-112858833D01*
X144091904Y-112792166D01*
X144130000Y-112692166D01*
X144168095Y-112658833D01*
X144891904Y-112358833D02*
X144091904Y-112358833D01*
X144891904Y-112058833D02*
X144472857Y-112058833D01*
X144396666Y-112092166D01*
X144358571Y-112158833D01*
X144358571Y-112258833D01*
X144396666Y-112325500D01*
X144434761Y-112358833D01*
X144853809Y-111458833D02*
X144891904Y-111525500D01*
X144891904Y-111658833D01*
X144853809Y-111725500D01*
X144777619Y-111758833D01*
X144472857Y-111758833D01*
X144396666Y-111725500D01*
X144358571Y-111658833D01*
X144358571Y-111525500D01*
X144396666Y-111458833D01*
X144472857Y-111425500D01*
X144549047Y-111425500D01*
X144625238Y-111758833D01*
X144891904Y-111125500D02*
X144358571Y-111125500D01*
X144510952Y-111125500D02*
X144434761Y-111092166D01*
X144396666Y-111058833D01*
X144358571Y-110992166D01*
X144358571Y-110925500D01*
X144891904Y-110692166D02*
X144358571Y-110692166D01*
X144510952Y-110692166D02*
X144434761Y-110658833D01*
X144396666Y-110625500D01*
X144358571Y-110558833D01*
X144358571Y-110492166D01*
X144358571Y-110325500D02*
X144891904Y-110158833D01*
X144358571Y-109992166D02*
X144891904Y-110158833D01*
X145082380Y-110225500D01*
X145120476Y-110258833D01*
X145158571Y-110325500D01*
X144891904Y-109192166D02*
X144091904Y-109192166D01*
X144663333Y-108958833D01*
X144091904Y-108725500D01*
X144891904Y-108725500D01*
X144091904Y-108458833D02*
X144891904Y-107992166D01*
X144091904Y-107992166D02*
X144891904Y-108458833D01*
X144472857Y-106958833D02*
X144510952Y-106858833D01*
X144549047Y-106825500D01*
X144625238Y-106792166D01*
X144739523Y-106792166D01*
X144815714Y-106825500D01*
X144853809Y-106858833D01*
X144891904Y-106925500D01*
X144891904Y-107192166D01*
X144091904Y-107192166D01*
X144091904Y-106958833D01*
X144130000Y-106892166D01*
X144168095Y-106858833D01*
X144244285Y-106825500D01*
X144320476Y-106825500D01*
X144396666Y-106858833D01*
X144434761Y-106892166D01*
X144472857Y-106958833D01*
X144472857Y-107192166D01*
X144891904Y-106492166D02*
X144358571Y-106492166D01*
X144510952Y-106492166D02*
X144434761Y-106458833D01*
X144396666Y-106425500D01*
X144358571Y-106358833D01*
X144358571Y-106292166D01*
X144853809Y-105792166D02*
X144891904Y-105858833D01*
X144891904Y-105992166D01*
X144853809Y-106058833D01*
X144777619Y-106092166D01*
X144472857Y-106092166D01*
X144396666Y-106058833D01*
X144358571Y-105992166D01*
X144358571Y-105858833D01*
X144396666Y-105792166D01*
X144472857Y-105758833D01*
X144549047Y-105758833D01*
X144625238Y-106092166D01*
X144891904Y-105158833D02*
X144472857Y-105158833D01*
X144396666Y-105192166D01*
X144358571Y-105258833D01*
X144358571Y-105392166D01*
X144396666Y-105458833D01*
X144853809Y-105158833D02*
X144891904Y-105225500D01*
X144891904Y-105392166D01*
X144853809Y-105458833D01*
X144777619Y-105492166D01*
X144701428Y-105492166D01*
X144625238Y-105458833D01*
X144587142Y-105392166D01*
X144587142Y-105225500D01*
X144549047Y-105158833D01*
X144891904Y-104825500D02*
X144091904Y-104825500D01*
X144587142Y-104758833D02*
X144891904Y-104558833D01*
X144358571Y-104558833D02*
X144663333Y-104825500D01*
X144891904Y-104158833D02*
X144853809Y-104225500D01*
X144815714Y-104258833D01*
X144739523Y-104292166D01*
X144510952Y-104292166D01*
X144434761Y-104258833D01*
X144396666Y-104225500D01*
X144358571Y-104158833D01*
X144358571Y-104058833D01*
X144396666Y-103992166D01*
X144434761Y-103958833D01*
X144510952Y-103925500D01*
X144739523Y-103925500D01*
X144815714Y-103958833D01*
X144853809Y-103992166D01*
X144891904Y-104058833D01*
X144891904Y-104158833D01*
X144358571Y-103325500D02*
X144891904Y-103325500D01*
X144358571Y-103625500D02*
X144777619Y-103625500D01*
X144853809Y-103592166D01*
X144891904Y-103525500D01*
X144891904Y-103425500D01*
X144853809Y-103358833D01*
X144815714Y-103325500D01*
X144358571Y-103092166D02*
X144358571Y-102825500D01*
X144091904Y-102992166D02*
X144777619Y-102992166D01*
X144853809Y-102958833D01*
X144891904Y-102892166D01*
X144891904Y-102825500D01*
X144472857Y-101825500D02*
X144510952Y-101725500D01*
X144549047Y-101692166D01*
X144625238Y-101658833D01*
X144739523Y-101658833D01*
X144815714Y-101692166D01*
X144853809Y-101725500D01*
X144891904Y-101792166D01*
X144891904Y-102058833D01*
X144091904Y-102058833D01*
X144091904Y-101825500D01*
X144130000Y-101758833D01*
X144168095Y-101725500D01*
X144244285Y-101692166D01*
X144320476Y-101692166D01*
X144396666Y-101725500D01*
X144434761Y-101758833D01*
X144472857Y-101825500D01*
X144472857Y-102058833D01*
X144891904Y-101258833D02*
X144853809Y-101325500D01*
X144815714Y-101358833D01*
X144739523Y-101392166D01*
X144510952Y-101392166D01*
X144434761Y-101358833D01*
X144396666Y-101325500D01*
X144358571Y-101258833D01*
X144358571Y-101158833D01*
X144396666Y-101092166D01*
X144434761Y-101058833D01*
X144510952Y-101025500D01*
X144739523Y-101025500D01*
X144815714Y-101058833D01*
X144853809Y-101092166D01*
X144891904Y-101158833D01*
X144891904Y-101258833D01*
X144891904Y-100425500D02*
X144472857Y-100425500D01*
X144396666Y-100458833D01*
X144358571Y-100525500D01*
X144358571Y-100658833D01*
X144396666Y-100725500D01*
X144853809Y-100425500D02*
X144891904Y-100492166D01*
X144891904Y-100658833D01*
X144853809Y-100725500D01*
X144777619Y-100758833D01*
X144701428Y-100758833D01*
X144625238Y-100725500D01*
X144587142Y-100658833D01*
X144587142Y-100492166D01*
X144549047Y-100425500D01*
X144891904Y-100092166D02*
X144358571Y-100092166D01*
X144510952Y-100092166D02*
X144434761Y-100058833D01*
X144396666Y-100025500D01*
X144358571Y-99958833D01*
X144358571Y-99892166D01*
X144891904Y-99358833D02*
X144091904Y-99358833D01*
X144853809Y-99358833D02*
X144891904Y-99425500D01*
X144891904Y-99558833D01*
X144853809Y-99625500D01*
X144815714Y-99658833D01*
X144739523Y-99692166D01*
X144510952Y-99692166D01*
X144434761Y-99658833D01*
X144396666Y-99625500D01*
X144358571Y-99558833D01*
X144358571Y-99425500D01*
X144396666Y-99358833D01*
X144358571Y-98558833D02*
X144891904Y-98392166D01*
X144358571Y-98225500D01*
X144891904Y-97592166D02*
X144891904Y-97992166D01*
X144891904Y-97792166D02*
X144091904Y-97792166D01*
X144206190Y-97858833D01*
X144282380Y-97925500D01*
X144320476Y-97992166D01*
D11*
X145108666Y-120936809D02*
X145208666Y-120974904D01*
X145375333Y-120974904D01*
X145442000Y-120936809D01*
X145475333Y-120898714D01*
X145508666Y-120822523D01*
X145508666Y-120746333D01*
X145475333Y-120670142D01*
X145442000Y-120632047D01*
X145375333Y-120593952D01*
X145242000Y-120555857D01*
X145175333Y-120517761D01*
X145142000Y-120479666D01*
X145108666Y-120403476D01*
X145108666Y-120327285D01*
X145142000Y-120251095D01*
X145175333Y-120213000D01*
X145242000Y-120174904D01*
X145408666Y-120174904D01*
X145508666Y-120213000D01*
X145742000Y-120174904D02*
X145908666Y-120974904D01*
X146042000Y-120403476D01*
X146175333Y-120974904D01*
X146342000Y-120174904D01*
X146575333Y-120251095D02*
X146608666Y-120213000D01*
X146675333Y-120174904D01*
X146842000Y-120174904D01*
X146908666Y-120213000D01*
X146942000Y-120251095D01*
X146975333Y-120327285D01*
X146975333Y-120403476D01*
X146942000Y-120517761D01*
X146542000Y-120974904D01*
X146975333Y-120974904D01*
X147775333Y-120936809D02*
X147875333Y-120974904D01*
X148042000Y-120974904D01*
X148108666Y-120936809D01*
X148142000Y-120898714D01*
X148175333Y-120822523D01*
X148175333Y-120746333D01*
X148142000Y-120670142D01*
X148108666Y-120632047D01*
X148042000Y-120593952D01*
X147908666Y-120555857D01*
X147842000Y-120517761D01*
X147808666Y-120479666D01*
X147775333Y-120403476D01*
X147775333Y-120327285D01*
X147808666Y-120251095D01*
X147842000Y-120213000D01*
X147908666Y-120174904D01*
X148075333Y-120174904D01*
X148175333Y-120213000D01*
X148408666Y-120174904D02*
X148575333Y-120974904D01*
X148708666Y-120403476D01*
X148842000Y-120974904D01*
X149008666Y-120174904D01*
X149642000Y-120974904D02*
X149242000Y-120974904D01*
X149442000Y-120974904D02*
X149442000Y-120174904D01*
X149375333Y-120289190D01*
X149308666Y-120365380D01*
X149242000Y-120403476D01*
X150475333Y-120974904D02*
X150475333Y-120174904D01*
X150642000Y-120174904D01*
X150742000Y-120213000D01*
X150808666Y-120289190D01*
X150842000Y-120365380D01*
X150875333Y-120517761D01*
X150875333Y-120632047D01*
X150842000Y-120784428D01*
X150808666Y-120860619D01*
X150742000Y-120936809D01*
X150642000Y-120974904D01*
X150475333Y-120974904D01*
X151308666Y-120174904D02*
X151442000Y-120174904D01*
X151508666Y-120213000D01*
X151575333Y-120289190D01*
X151608666Y-120441571D01*
X151608666Y-120708238D01*
X151575333Y-120860619D01*
X151508666Y-120936809D01*
X151442000Y-120974904D01*
X151308666Y-120974904D01*
X151242000Y-120936809D01*
X151175333Y-120860619D01*
X151142000Y-120708238D01*
X151142000Y-120441571D01*
X151175333Y-120289190D01*
X151242000Y-120213000D01*
X151308666Y-120174904D01*
X151908666Y-120174904D02*
X151908666Y-120822523D01*
X151942000Y-120898714D01*
X151975333Y-120936809D01*
X152042000Y-120974904D01*
X152175333Y-120974904D01*
X152242000Y-120936809D01*
X152275333Y-120898714D01*
X152308666Y-120822523D01*
X152308666Y-120174904D01*
X152542000Y-120174904D02*
X152942000Y-120174904D01*
X152742000Y-120974904D02*
X152742000Y-120174904D01*
X153608666Y-120174904D02*
X153842000Y-120974904D01*
X154075333Y-120174904D01*
X154708666Y-120898714D02*
X154675333Y-120936809D01*
X154575333Y-120974904D01*
X154508666Y-120974904D01*
X154408666Y-120936809D01*
X154342000Y-120860619D01*
X154308666Y-120784428D01*
X154275333Y-120632047D01*
X154275333Y-120517761D01*
X154308666Y-120365380D01*
X154342000Y-120289190D01*
X154408666Y-120213000D01*
X154508666Y-120174904D01*
X154575333Y-120174904D01*
X154675333Y-120213000D01*
X154708666Y-120251095D01*
X155408666Y-120898714D02*
X155375333Y-120936809D01*
X155275333Y-120974904D01*
X155208666Y-120974904D01*
X155108666Y-120936809D01*
X155042000Y-120860619D01*
X155008666Y-120784428D01*
X154975333Y-120632047D01*
X154975333Y-120517761D01*
X155008666Y-120365380D01*
X155042000Y-120289190D01*
X155108666Y-120213000D01*
X155208666Y-120174904D01*
X155275333Y-120174904D01*
X155375333Y-120213000D01*
X155408666Y-120251095D01*
X156242000Y-120974904D02*
X156242000Y-120174904D01*
X156408666Y-120174904D01*
X156508666Y-120213000D01*
X156575333Y-120289190D01*
X156608666Y-120365380D01*
X156642000Y-120517761D01*
X156642000Y-120632047D01*
X156608666Y-120784428D01*
X156575333Y-120860619D01*
X156508666Y-120936809D01*
X156408666Y-120974904D01*
X156242000Y-120974904D01*
X156942000Y-120974904D02*
X156942000Y-120174904D01*
X157275333Y-120974904D02*
X157275333Y-120174904D01*
X157675333Y-120974904D01*
X157675333Y-120174904D01*
X158908666Y-120213000D02*
X158842000Y-120174904D01*
X158742000Y-120174904D01*
X158642000Y-120213000D01*
X158575333Y-120289190D01*
X158542000Y-120365380D01*
X158508666Y-120517761D01*
X158508666Y-120632047D01*
X158542000Y-120784428D01*
X158575333Y-120860619D01*
X158642000Y-120936809D01*
X158742000Y-120974904D01*
X158808666Y-120974904D01*
X158908666Y-120936809D01*
X158942000Y-120898714D01*
X158942000Y-120632047D01*
X158808666Y-120632047D01*
X159242000Y-120974904D02*
X159242000Y-120174904D01*
X159642000Y-120974904D01*
X159642000Y-120174904D01*
X159975333Y-120974904D02*
X159975333Y-120174904D01*
X160142000Y-120174904D01*
X160242000Y-120213000D01*
X160308666Y-120289190D01*
X160342000Y-120365380D01*
X160375333Y-120517761D01*
X160375333Y-120632047D01*
X160342000Y-120784428D01*
X160308666Y-120860619D01*
X160242000Y-120936809D01*
X160142000Y-120974904D01*
X159975333Y-120974904D01*
D12*
X160416000Y-112410000D02*
X160416000Y-98410000D01*
X146416000Y-112410000D02*
X146416000Y-98410000D01*
X146416000Y-98410000D02*
X160416000Y-98410000D01*
X146416000Y-112410000D02*
X160416000Y-112410000D01*
X145062000Y-116616000D02*
X145062000Y-119276000D01*
X157822000Y-116616000D02*
X145062000Y-116616000D01*
X157822000Y-119276000D02*
X145062000Y-119276000D01*
X157822000Y-116616000D02*
X157822000Y-119276000D01*
X159092000Y-116616000D02*
X160422000Y-116616000D01*
X160422000Y-116616000D02*
X160422000Y-117946000D01*
M02*
