G04 #@! TF.GenerationSoftware,KiCad,Pcbnew,(5.1.5-0-10_14)*
G04 #@! TF.CreationDate,2020-01-26T21:02:15+01:00*
G04 #@! TF.ProjectId,Cherry MX Breakout Board (Kailh Socket),43686572-7279-4204-9d58-20427265616b,v1*
G04 #@! TF.SameCoordinates,Original*
G04 #@! TF.FileFunction,Soldermask,Top*
G04 #@! TF.FilePolarity,Negative*
%FSLAX46Y46*%
G04 Gerber Fmt 4.6, Leading zero omitted, Abs format (unit mm)*
G04 Created by KiCad (PCBNEW (5.1.5-0-10_14)) date 2020-01-26 21:02:15*
%MOMM*%
%LPD*%
G04 APERTURE LIST*
%ADD10C,0.100000*%
G04 APERTURE END LIST*
D10*
G36*
X159993000Y-118847000D02*
G01*
X158191000Y-118847000D01*
X158191000Y-117045000D01*
X159993000Y-117045000D01*
X159993000Y-118847000D01*
G37*
G36*
X156665512Y-117049927D02*
G01*
X156814812Y-117079624D01*
X156978784Y-117147544D01*
X157126354Y-117246147D01*
X157251853Y-117371646D01*
X157350456Y-117519216D01*
X157418376Y-117683188D01*
X157453000Y-117857259D01*
X157453000Y-118034741D01*
X157418376Y-118208812D01*
X157350456Y-118372784D01*
X157251853Y-118520354D01*
X157126354Y-118645853D01*
X156978784Y-118744456D01*
X156814812Y-118812376D01*
X156665512Y-118842073D01*
X156640742Y-118847000D01*
X156463258Y-118847000D01*
X156438488Y-118842073D01*
X156289188Y-118812376D01*
X156125216Y-118744456D01*
X155977646Y-118645853D01*
X155852147Y-118520354D01*
X155753544Y-118372784D01*
X155685624Y-118208812D01*
X155651000Y-118034741D01*
X155651000Y-117857259D01*
X155685624Y-117683188D01*
X155753544Y-117519216D01*
X155852147Y-117371646D01*
X155977646Y-117246147D01*
X156125216Y-117147544D01*
X156289188Y-117079624D01*
X156438488Y-117049927D01*
X156463258Y-117045000D01*
X156640742Y-117045000D01*
X156665512Y-117049927D01*
G37*
G36*
X154125512Y-117049927D02*
G01*
X154274812Y-117079624D01*
X154438784Y-117147544D01*
X154586354Y-117246147D01*
X154711853Y-117371646D01*
X154810456Y-117519216D01*
X154878376Y-117683188D01*
X154913000Y-117857259D01*
X154913000Y-118034741D01*
X154878376Y-118208812D01*
X154810456Y-118372784D01*
X154711853Y-118520354D01*
X154586354Y-118645853D01*
X154438784Y-118744456D01*
X154274812Y-118812376D01*
X154125512Y-118842073D01*
X154100742Y-118847000D01*
X153923258Y-118847000D01*
X153898488Y-118842073D01*
X153749188Y-118812376D01*
X153585216Y-118744456D01*
X153437646Y-118645853D01*
X153312147Y-118520354D01*
X153213544Y-118372784D01*
X153145624Y-118208812D01*
X153111000Y-118034741D01*
X153111000Y-117857259D01*
X153145624Y-117683188D01*
X153213544Y-117519216D01*
X153312147Y-117371646D01*
X153437646Y-117246147D01*
X153585216Y-117147544D01*
X153749188Y-117079624D01*
X153898488Y-117049927D01*
X153923258Y-117045000D01*
X154100742Y-117045000D01*
X154125512Y-117049927D01*
G37*
G36*
X151585512Y-117049927D02*
G01*
X151734812Y-117079624D01*
X151898784Y-117147544D01*
X152046354Y-117246147D01*
X152171853Y-117371646D01*
X152270456Y-117519216D01*
X152338376Y-117683188D01*
X152373000Y-117857259D01*
X152373000Y-118034741D01*
X152338376Y-118208812D01*
X152270456Y-118372784D01*
X152171853Y-118520354D01*
X152046354Y-118645853D01*
X151898784Y-118744456D01*
X151734812Y-118812376D01*
X151585512Y-118842073D01*
X151560742Y-118847000D01*
X151383258Y-118847000D01*
X151358488Y-118842073D01*
X151209188Y-118812376D01*
X151045216Y-118744456D01*
X150897646Y-118645853D01*
X150772147Y-118520354D01*
X150673544Y-118372784D01*
X150605624Y-118208812D01*
X150571000Y-118034741D01*
X150571000Y-117857259D01*
X150605624Y-117683188D01*
X150673544Y-117519216D01*
X150772147Y-117371646D01*
X150897646Y-117246147D01*
X151045216Y-117147544D01*
X151209188Y-117079624D01*
X151358488Y-117049927D01*
X151383258Y-117045000D01*
X151560742Y-117045000D01*
X151585512Y-117049927D01*
G37*
G36*
X149045512Y-117049927D02*
G01*
X149194812Y-117079624D01*
X149358784Y-117147544D01*
X149506354Y-117246147D01*
X149631853Y-117371646D01*
X149730456Y-117519216D01*
X149798376Y-117683188D01*
X149833000Y-117857259D01*
X149833000Y-118034741D01*
X149798376Y-118208812D01*
X149730456Y-118372784D01*
X149631853Y-118520354D01*
X149506354Y-118645853D01*
X149358784Y-118744456D01*
X149194812Y-118812376D01*
X149045512Y-118842073D01*
X149020742Y-118847000D01*
X148843258Y-118847000D01*
X148818488Y-118842073D01*
X148669188Y-118812376D01*
X148505216Y-118744456D01*
X148357646Y-118645853D01*
X148232147Y-118520354D01*
X148133544Y-118372784D01*
X148065624Y-118208812D01*
X148031000Y-118034741D01*
X148031000Y-117857259D01*
X148065624Y-117683188D01*
X148133544Y-117519216D01*
X148232147Y-117371646D01*
X148357646Y-117246147D01*
X148505216Y-117147544D01*
X148669188Y-117079624D01*
X148818488Y-117049927D01*
X148843258Y-117045000D01*
X149020742Y-117045000D01*
X149045512Y-117049927D01*
G37*
G36*
X146505512Y-117049927D02*
G01*
X146654812Y-117079624D01*
X146818784Y-117147544D01*
X146966354Y-117246147D01*
X147091853Y-117371646D01*
X147190456Y-117519216D01*
X147258376Y-117683188D01*
X147293000Y-117857259D01*
X147293000Y-118034741D01*
X147258376Y-118208812D01*
X147190456Y-118372784D01*
X147091853Y-118520354D01*
X146966354Y-118645853D01*
X146818784Y-118744456D01*
X146654812Y-118812376D01*
X146505512Y-118842073D01*
X146480742Y-118847000D01*
X146303258Y-118847000D01*
X146278488Y-118842073D01*
X146129188Y-118812376D01*
X145965216Y-118744456D01*
X145817646Y-118645853D01*
X145692147Y-118520354D01*
X145593544Y-118372784D01*
X145525624Y-118208812D01*
X145491000Y-118034741D01*
X145491000Y-117857259D01*
X145525624Y-117683188D01*
X145593544Y-117519216D01*
X145692147Y-117371646D01*
X145817646Y-117246147D01*
X145965216Y-117147544D01*
X146129188Y-117079624D01*
X146278488Y-117049927D01*
X146303258Y-117045000D01*
X146480742Y-117045000D01*
X146505512Y-117049927D01*
G37*
G36*
X151178585Y-107698802D02*
G01*
X151328410Y-107728604D01*
X151610674Y-107845521D01*
X151864705Y-108015259D01*
X152080741Y-108231295D01*
X152250479Y-108485326D01*
X152367396Y-108767590D01*
X152427000Y-109067240D01*
X152427000Y-109372760D01*
X152367396Y-109672410D01*
X152250479Y-109954674D01*
X152080741Y-110208705D01*
X151864705Y-110424741D01*
X151610674Y-110594479D01*
X151328410Y-110711396D01*
X151178585Y-110741198D01*
X151028761Y-110771000D01*
X150723239Y-110771000D01*
X150573415Y-110741198D01*
X150423590Y-110711396D01*
X150141326Y-110594479D01*
X149887295Y-110424741D01*
X149671259Y-110208705D01*
X149501521Y-109954674D01*
X149384604Y-109672410D01*
X149325000Y-109372760D01*
X149325000Y-109067240D01*
X149384604Y-108767590D01*
X149501521Y-108485326D01*
X149671259Y-108231295D01*
X149887295Y-108015259D01*
X150141326Y-107845521D01*
X150423590Y-107728604D01*
X150573415Y-107698802D01*
X150723239Y-107669000D01*
X151028761Y-107669000D01*
X151178585Y-107698802D01*
G37*
G36*
X154014254Y-103437818D02*
G01*
X154387511Y-103592426D01*
X154387513Y-103592427D01*
X154723436Y-103816884D01*
X155009116Y-104102564D01*
X155221889Y-104421000D01*
X155233574Y-104438489D01*
X155388182Y-104811746D01*
X155467000Y-105207993D01*
X155467000Y-105612007D01*
X155388182Y-106008254D01*
X155233574Y-106381511D01*
X155233573Y-106381513D01*
X155009116Y-106717436D01*
X154723436Y-107003116D01*
X154387513Y-107227573D01*
X154387512Y-107227574D01*
X154387511Y-107227574D01*
X154014254Y-107382182D01*
X153618007Y-107461000D01*
X153213993Y-107461000D01*
X152817746Y-107382182D01*
X152444489Y-107227574D01*
X152444488Y-107227574D01*
X152444487Y-107227573D01*
X152108564Y-107003116D01*
X151822884Y-106717436D01*
X151598427Y-106381513D01*
X151598426Y-106381511D01*
X151443818Y-106008254D01*
X151365000Y-105612007D01*
X151365000Y-105207993D01*
X151443818Y-104811746D01*
X151598426Y-104438489D01*
X151610112Y-104421000D01*
X151822884Y-104102564D01*
X152108564Y-103816884D01*
X152444487Y-103592427D01*
X152444489Y-103592426D01*
X152817746Y-103437818D01*
X153213993Y-103359000D01*
X153618007Y-103359000D01*
X154014254Y-103437818D01*
G37*
G36*
X148638585Y-101348802D02*
G01*
X148788410Y-101378604D01*
X149070674Y-101495521D01*
X149324705Y-101665259D01*
X149540741Y-101881295D01*
X149710479Y-102135326D01*
X149827396Y-102417590D01*
X149887000Y-102717240D01*
X149887000Y-103022760D01*
X149827396Y-103322410D01*
X149710479Y-103604674D01*
X149540741Y-103858705D01*
X149324705Y-104074741D01*
X149070674Y-104244479D01*
X148788410Y-104361396D01*
X148638585Y-104391198D01*
X148488761Y-104421000D01*
X148183239Y-104421000D01*
X148033415Y-104391198D01*
X147883590Y-104361396D01*
X147601326Y-104244479D01*
X147347295Y-104074741D01*
X147131259Y-103858705D01*
X146961521Y-103604674D01*
X146844604Y-103322410D01*
X146785000Y-103022760D01*
X146785000Y-102717240D01*
X146844604Y-102417590D01*
X146961521Y-102135326D01*
X147131259Y-101881295D01*
X147347295Y-101665259D01*
X147601326Y-101495521D01*
X147883590Y-101378604D01*
X148033415Y-101348802D01*
X148183239Y-101319000D01*
X148488761Y-101319000D01*
X148638585Y-101348802D01*
G37*
M02*
