G04 #@! TF.GenerationSoftware,KiCad,Pcbnew,(5.1.5-0-10_14)*
G04 #@! TF.CreationDate,2020-01-23T15:24:22+01:00*
G04 #@! TF.ProjectId,Cherry MX Breakout Board (Kailh Socket),43686572-7279-4204-9d58-20427265616b,v1*
G04 #@! TF.SameCoordinates,Original*
G04 #@! TF.FileFunction,Legend,Bot*
G04 #@! TF.FilePolarity,Positive*
%FSLAX46Y46*%
G04 Gerber Fmt 4.6, Leading zero omitted, Abs format (unit mm)*
G04 Created by KiCad (PCBNEW (5.1.5-0-10_14)) date 2020-01-23 15:24:22*
%MOMM*%
%LPD*%
G04 APERTURE LIST*
%ADD10C,0.120000*%
%ADD11C,0.150000*%
G04 APERTURE END LIST*
D10*
X160266000Y-107110000D02*
X160266000Y-107410000D01*
X159966000Y-107410000D02*
X160266000Y-107410000D01*
X146636000Y-110570000D02*
G75*
G03X147636000Y-111570000I1000000J0D01*
G01*
X150631000Y-101220000D02*
G75*
G03X150081000Y-100670000I-550000J0D01*
G01*
X150640742Y-105262428D02*
G75*
G03X152526000Y-108270000I3090258J-157572D01*
G01*
X150636000Y-101220000D02*
X150636000Y-105420000D01*
X152526000Y-111570000D02*
X152526000Y-108270000D01*
X147616000Y-111570000D02*
X152526000Y-111570000D01*
X146636000Y-100670000D02*
X150081000Y-100670000D01*
X146636000Y-110570000D02*
X146636000Y-100670000D01*
X156389221Y-121246000D02*
X156714779Y-121246000D01*
X156389221Y-122266000D02*
X156714779Y-122266000D01*
D11*
X156722432Y-120606315D02*
X156770051Y-120653934D01*
X156912908Y-120701553D01*
X157008146Y-120701553D01*
X157151004Y-120653934D01*
X157246242Y-120558696D01*
X157293861Y-120463458D01*
X157341480Y-120272982D01*
X157341480Y-120130125D01*
X157293861Y-119939649D01*
X157246242Y-119844411D01*
X157151004Y-119749173D01*
X157008146Y-119701553D01*
X156912908Y-119701553D01*
X156770051Y-119749173D01*
X156722432Y-119796792D01*
X155770051Y-120701553D02*
X156341480Y-120701553D01*
X156055766Y-120701553D02*
X156055766Y-119701553D01*
X156151004Y-119844411D01*
X156246242Y-119939649D01*
X156341480Y-119987268D01*
M02*
